<?xml version="1.0" standalone="no"?><svg xmlns="http://www.w3.org/2000/svg" viewBox="0 0 1440 320"><path fill="black" fill-opacity="1" d="M0,160L40,170.7C80,181,160,203,240,208C320,213,400,203,480,181.3C560,160,640,128,720,117.3C800,107,880,117,960,144C1040,171,1120,213,1200,213.3C1280,213,1360,171,1400,149.3L1440,128L1440,320L1400,320C1360,320,1280,320,1200,320C1120,320,1040,320,960,320C880,320,800,320,720,320C640,320,560,320,480,320C400,320,320,320,240,320C160,320,80,320,40,320L0,320Z"></path></svg>